{"title":"Bunheads S01E07 HDTV XviD - pKcMvA","uid":7492205,"size":399027080,"categoryP":"video","categoryS":"tv_shows","magnet":"?xt=urn:btih:16e13eb895440791d1468176b425d99bdbc1677c&amp;dn=Bunheads+S01E07+HDTV+XviD+-+pKcMvA&amp;tr=udp%3A%2F%2Ftracker.openbittorrent.com%3A80&amp;tr=udp%3A%2F%2Fopen.demonii.com%3A1337&amp;tr=udp%3A%2F%2Ftracker.coppersurfer.tk%3A6969&amp;tr=udp%3A%2F%2Fexodus.desync.com%3A6969","seeders":0,"leechers":0,"uploader":"PKCMVA","files":1,"time":1343776444,"description":"Bunheads S01E07 HDTV XviD - pKcMvA\n\nFormat                                   : AVI\nFormat/Info                              : Audio Video Interleave\nFile size                                : 381 MiB\nDuration                                 : 43mn 2s\nOverall bit rate                         : 1 236 Kbps\n\nVideo\nFormat                                   : MPEG-4 Visual\nFormat profile                           : Advanced Simple@L5\nFormat settings, BVOP                    : No\nFormat settings, QPel                    : No\nFormat settings, GMC                     : No warppoints\nFormat settings, Matrix                  : Default (H.263)\nCodec ID                                 : XVID\nCodec ID/Hint                            : XviD\nDuration                                 : 43mn 2s\nBit rate                                 : 1 099 Kbps\nWidth                                    : 624 pixels\nHeight                                   : 352 pixels\nDisplay aspect ratio                     : 16:9\nFrame rate                               : 23.976 fps\nColor space                              : YUV\nChroma subsampling                       : 4:2:0\nBit depth                                : 8 bits\nScan type                                : Progressive\nCompression mode                         : Lossy\nBits/(Pixel*Frame)                       : 0.209\nStream size                              : 338 MiB (89%)\nWriting library                          : XviD 62\n\nAudio\nFormat                                   : MPEG Audio\nFormat version                           : Version 1\nFormat profile                           : Layer 3\nCodec ID                                 : 55\nCodec ID/Hint                            : MP3\nDuration                                 : 43mn 2s\nBit rate mode                            : Constant\nBit rate                                 : 128 Kbps\nChannel(s)                               : 2 channels\nSampling rate                            : 44.1 KHz\nCompression mode                         : Lossy\nStream size                              : 39.4 MiB (10%)\nAlignment                                : Split accross interleaves\nInterleave, duration                     : 42 ms (1.00 video frame)","torrent":{"xt":"urn:btih:16e13eb895440791d1468176b425d99bdbc1677c","amp;dn":"Bunheads+S01E07+HDTV+XviD+-+pKcMvA","amp;tr":["udp%3A%2F%2Ftracker.openbittorrent.com%3A80","udp%3A%2F%2Fopen.demonii.com%3A1337","udp%3A%2F%2Ftracker.coppersurfer.tk%3A6969","udp%3A%2F%2Fexodus.desync.com%3A6969"],"infoHash":"16e13eb895440791d1468176b425d99bdbc1677c","infoHashBuffer":{"type":"Buffer","data":[22,225,62,184,149,68,7,145,209,70,129,118,180,37,217,155,219,193,103,124]},"announce":[],"urlList":[]}}